<mxfile host="app.diagrams.net" agent="Mozilla/5.0 (Windows NT 10.0; Win64; x64) AppleWebKit/537.36 (KHTML, like Gecko) Chrome/135.0.0.0 Safari/537.36" version="25.0.1">
  <diagram name="Trang-1" id="HvrC-ln5yr4UbTx-jEt3">
    <mxGraphModel dx="2620" dy="2052" grid="1" gridSize="10" guides="1" tooltips="1" connect="1" arrows="1" fold="1" page="1" pageScale="1" pageWidth="827" pageHeight="1169" math="0" shadow="0">
      <root>
        <mxCell id="0" />
        <mxCell id="1" parent="0" />
        <mxCell id="MYs3DCR5_QnMZLishloG-1" value="Quản lý website đặt thuê xe moto" style="rounded=0;whiteSpace=wrap;html=1;" vertex="1" parent="1">
          <mxGeometry x="300" y="-620" width="160" height="49" as="geometry" />
        </mxCell>
        <mxCell id="MYs3DCR5_QnMZLishloG-3" value="" style="endArrow=classic;html=1;rounded=0;exitX=0.5;exitY=1;exitDx=0;exitDy=0;" edge="1" parent="1" source="MYs3DCR5_QnMZLishloG-1">
          <mxGeometry width="50" height="50" relative="1" as="geometry">
            <mxPoint x="390" y="-700" as="sourcePoint" />
            <mxPoint x="380" y="-530" as="targetPoint" />
          </mxGeometry>
        </mxCell>
        <mxCell id="MYs3DCR5_QnMZLishloG-4" value="" style="endArrow=none;html=1;rounded=0;" edge="1" parent="1">
          <mxGeometry width="50" height="50" relative="1" as="geometry">
            <mxPoint y="-520" as="sourcePoint" />
            <mxPoint x="770" y="-520" as="targetPoint" />
          </mxGeometry>
        </mxCell>
        <mxCell id="MYs3DCR5_QnMZLishloG-5" value="" style="endArrow=classic;html=1;rounded=0;" edge="1" parent="1">
          <mxGeometry width="50" height="50" relative="1" as="geometry">
            <mxPoint y="-520" as="sourcePoint" />
            <mxPoint y="-480" as="targetPoint" />
          </mxGeometry>
        </mxCell>
        <mxCell id="MYs3DCR5_QnMZLishloG-6" value="" style="endArrow=classic;html=1;rounded=0;" edge="1" parent="1">
          <mxGeometry width="50" height="50" relative="1" as="geometry">
            <mxPoint x="179.5" y="-520" as="sourcePoint" />
            <mxPoint x="179.5" y="-480" as="targetPoint" />
          </mxGeometry>
        </mxCell>
        <mxCell id="MYs3DCR5_QnMZLishloG-7" value="" style="endArrow=classic;html=1;rounded=0;" edge="1" parent="1">
          <mxGeometry width="50" height="50" relative="1" as="geometry">
            <mxPoint x="599.5" y="-520" as="sourcePoint" />
            <mxPoint x="599.5" y="-480" as="targetPoint" />
          </mxGeometry>
        </mxCell>
        <mxCell id="MYs3DCR5_QnMZLishloG-8" value="" style="endArrow=classic;html=1;rounded=0;" edge="1" parent="1">
          <mxGeometry width="50" height="50" relative="1" as="geometry">
            <mxPoint x="770" y="-520" as="sourcePoint" />
            <mxPoint x="770" y="-480" as="targetPoint" />
          </mxGeometry>
        </mxCell>
        <mxCell id="MYs3DCR5_QnMZLishloG-9" value="Quản lý hệ thống" style="rounded=0;whiteSpace=wrap;html=1;" vertex="1" parent="1">
          <mxGeometry x="-60" y="-480" width="120" height="60" as="geometry" />
        </mxCell>
        <mxCell id="MYs3DCR5_QnMZLishloG-10" value="Quản lý khách hàng" style="rounded=0;whiteSpace=wrap;html=1;" vertex="1" parent="1">
          <mxGeometry x="120" y="-480" width="120" height="60" as="geometry" />
        </mxCell>
        <mxCell id="MYs3DCR5_QnMZLishloG-11" value="Quản lý xe" style="rounded=0;whiteSpace=wrap;html=1;" vertex="1" parent="1">
          <mxGeometry x="510" y="-480" width="120" height="60" as="geometry" />
        </mxCell>
        <mxCell id="MYs3DCR5_QnMZLishloG-12" value="Quản lý đơn đặt xe" style="rounded=0;whiteSpace=wrap;html=1;" vertex="1" parent="1">
          <mxGeometry x="707" y="-480" width="120" height="60" as="geometry" />
        </mxCell>
        <mxCell id="MYs3DCR5_QnMZLishloG-13" value="" style="endArrow=classic;html=1;rounded=0;" edge="1" parent="1" target="MYs3DCR5_QnMZLishloG-14">
          <mxGeometry width="50" height="50" relative="1" as="geometry">
            <mxPoint x="380" y="-520" as="sourcePoint" />
            <mxPoint x="380" y="-480" as="targetPoint" />
          </mxGeometry>
        </mxCell>
        <mxCell id="MYs3DCR5_QnMZLishloG-14" value="Quản lý doanh thu" style="rounded=0;whiteSpace=wrap;html=1;" vertex="1" parent="1">
          <mxGeometry x="320" y="-480" width="120" height="60" as="geometry" />
        </mxCell>
        <mxCell id="MYs3DCR5_QnMZLishloG-17" value="" style="endArrow=none;html=1;rounded=0;exitX=0.158;exitY=0.979;exitDx=0;exitDy=0;exitPerimeter=0;" edge="1" parent="1" source="MYs3DCR5_QnMZLishloG-9">
          <mxGeometry width="50" height="50" relative="1" as="geometry">
            <mxPoint x="390" y="-450" as="sourcePoint" />
            <mxPoint x="-41" y="-130" as="targetPoint" />
          </mxGeometry>
        </mxCell>
        <mxCell id="MYs3DCR5_QnMZLishloG-19" value="Đăng nhập/ Đăng ký&amp;nbsp;" style="rounded=0;whiteSpace=wrap;html=1;" vertex="1" parent="1">
          <mxGeometry x="-20" y="-400" width="120" height="60" as="geometry" />
        </mxCell>
        <mxCell id="MYs3DCR5_QnMZLishloG-20" value="" style="endArrow=none;html=1;rounded=0;entryX=0;entryY=0.5;entryDx=0;entryDy=0;" edge="1" parent="1" target="MYs3DCR5_QnMZLishloG-19">
          <mxGeometry width="50" height="50" relative="1" as="geometry">
            <mxPoint x="-40" y="-370" as="sourcePoint" />
            <mxPoint x="440" y="-420" as="targetPoint" />
          </mxGeometry>
        </mxCell>
        <mxCell id="MYs3DCR5_QnMZLishloG-21" value="Cập nhật tài khoản" style="rounded=0;whiteSpace=wrap;html=1;" vertex="1" parent="1">
          <mxGeometry x="-20" y="-320" width="120" height="60" as="geometry" />
        </mxCell>
        <mxCell id="MYs3DCR5_QnMZLishloG-22" value="" style="endArrow=none;html=1;rounded=0;entryX=0;entryY=0.5;entryDx=0;entryDy=0;" edge="1" parent="1" target="MYs3DCR5_QnMZLishloG-21">
          <mxGeometry width="50" height="50" relative="1" as="geometry">
            <mxPoint x="-40" y="-290" as="sourcePoint" />
            <mxPoint x="440" y="-480" as="targetPoint" />
          </mxGeometry>
        </mxCell>
        <mxCell id="MYs3DCR5_QnMZLishloG-23" value="Cập nhật hãng xe" style="rounded=0;whiteSpace=wrap;html=1;" vertex="1" parent="1">
          <mxGeometry x="-20" y="-240" width="120" height="60" as="geometry" />
        </mxCell>
        <mxCell id="MYs3DCR5_QnMZLishloG-24" value="Cập nhật loại xe" style="rounded=0;whiteSpace=wrap;html=1;" vertex="1" parent="1">
          <mxGeometry x="-20" y="-150" width="120" height="60" as="geometry" />
        </mxCell>
        <mxCell id="MYs3DCR5_QnMZLishloG-25" value="Đăng nhập" style="rounded=0;whiteSpace=wrap;html=1;" vertex="1" parent="1">
          <mxGeometry x="150" y="-400" width="120" height="60" as="geometry" />
        </mxCell>
        <mxCell id="MYs3DCR5_QnMZLishloG-26" value="" style="endArrow=none;html=1;rounded=0;entryX=0.075;entryY=1.013;entryDx=0;entryDy=0;entryPerimeter=0;" edge="1" parent="1" target="MYs3DCR5_QnMZLishloG-10">
          <mxGeometry width="50" height="50" relative="1" as="geometry">
            <mxPoint x="130" y="-120" as="sourcePoint" />
            <mxPoint x="440" y="-360" as="targetPoint" />
          </mxGeometry>
        </mxCell>
        <mxCell id="MYs3DCR5_QnMZLishloG-27" value="" style="endArrow=none;html=1;rounded=0;" edge="1" parent="1">
          <mxGeometry width="50" height="50" relative="1" as="geometry">
            <mxPoint x="330" y="-420" as="sourcePoint" />
            <mxPoint x="330" y="-120" as="targetPoint" />
          </mxGeometry>
        </mxCell>
        <mxCell id="MYs3DCR5_QnMZLishloG-28" value="" style="endArrow=none;html=1;rounded=0;exitX=0.133;exitY=1.046;exitDx=0;exitDy=0;exitPerimeter=0;" edge="1" parent="1" source="MYs3DCR5_QnMZLishloG-11">
          <mxGeometry width="50" height="50" relative="1" as="geometry">
            <mxPoint x="390" y="-310" as="sourcePoint" />
            <mxPoint x="530" y="-210" as="targetPoint" />
          </mxGeometry>
        </mxCell>
        <mxCell id="MYs3DCR5_QnMZLishloG-29" value="" style="endArrow=none;html=1;rounded=0;exitX=0.108;exitY=1;exitDx=0;exitDy=0;exitPerimeter=0;" edge="1" parent="1" source="MYs3DCR5_QnMZLishloG-12">
          <mxGeometry width="50" height="50" relative="1" as="geometry">
            <mxPoint x="390" y="-310" as="sourcePoint" />
            <mxPoint x="720" y="-190" as="targetPoint" />
          </mxGeometry>
        </mxCell>
        <mxCell id="MYs3DCR5_QnMZLishloG-30" value="Đăng ký" style="rounded=0;whiteSpace=wrap;html=1;" vertex="1" parent="1">
          <mxGeometry x="150" y="-320" width="120" height="60" as="geometry" />
        </mxCell>
        <mxCell id="MYs3DCR5_QnMZLishloG-31" value="Đặt thuê xe" style="rounded=0;whiteSpace=wrap;html=1;" vertex="1" parent="1">
          <mxGeometry x="150" y="-240" width="120" height="60" as="geometry" />
        </mxCell>
        <mxCell id="MYs3DCR5_QnMZLishloG-32" value="Quản lý thông tin khách hàng" style="rounded=0;whiteSpace=wrap;html=1;" vertex="1" parent="1">
          <mxGeometry x="150" y="-150" width="120" height="60" as="geometry" />
        </mxCell>
        <mxCell id="MYs3DCR5_QnMZLishloG-34" value="" style="endArrow=none;html=1;rounded=0;entryX=0;entryY=0.5;entryDx=0;entryDy=0;" edge="1" parent="1" target="MYs3DCR5_QnMZLishloG-25">
          <mxGeometry width="50" height="50" relative="1" as="geometry">
            <mxPoint x="130" y="-370" as="sourcePoint" />
            <mxPoint x="320" y="-400" as="targetPoint" />
          </mxGeometry>
        </mxCell>
        <mxCell id="MYs3DCR5_QnMZLishloG-35" value="" style="endArrow=none;html=1;rounded=0;entryX=0;entryY=0.667;entryDx=0;entryDy=0;entryPerimeter=0;" edge="1" parent="1" target="MYs3DCR5_QnMZLishloG-30">
          <mxGeometry width="50" height="50" relative="1" as="geometry">
            <mxPoint x="130" y="-280" as="sourcePoint" />
            <mxPoint x="140" y="-280" as="targetPoint" />
          </mxGeometry>
        </mxCell>
        <mxCell id="MYs3DCR5_QnMZLishloG-36" value="" style="endArrow=none;html=1;rounded=0;" edge="1" parent="1">
          <mxGeometry width="50" height="50" relative="1" as="geometry">
            <mxPoint x="-40" y="-210" as="sourcePoint" />
            <mxPoint x="-20" y="-210" as="targetPoint" />
          </mxGeometry>
        </mxCell>
        <mxCell id="MYs3DCR5_QnMZLishloG-37" value="" style="endArrow=none;html=1;rounded=0;entryX=0;entryY=0.5;entryDx=0;entryDy=0;" edge="1" parent="1" target="MYs3DCR5_QnMZLishloG-31">
          <mxGeometry width="50" height="50" relative="1" as="geometry">
            <mxPoint x="130" y="-210" as="sourcePoint" />
            <mxPoint x="320" y="-250" as="targetPoint" />
          </mxGeometry>
        </mxCell>
        <mxCell id="MYs3DCR5_QnMZLishloG-38" value="" style="endArrow=none;html=1;rounded=0;entryX=0;entryY=0.5;entryDx=0;entryDy=0;" edge="1" parent="1" target="MYs3DCR5_QnMZLishloG-32">
          <mxGeometry width="50" height="50" relative="1" as="geometry">
            <mxPoint x="130" y="-120" as="sourcePoint" />
            <mxPoint x="320" y="-250" as="targetPoint" />
          </mxGeometry>
        </mxCell>
        <mxCell id="MYs3DCR5_QnMZLishloG-40" value="" style="endArrow=none;html=1;rounded=0;" edge="1" parent="1">
          <mxGeometry width="50" height="50" relative="1" as="geometry">
            <mxPoint x="-40" y="-130" as="sourcePoint" />
            <mxPoint x="-20" y="-130" as="targetPoint" />
          </mxGeometry>
        </mxCell>
        <mxCell id="MYs3DCR5_QnMZLishloG-41" value="Xem hóa đơn" style="rounded=0;whiteSpace=wrap;html=1;" vertex="1" parent="1">
          <mxGeometry x="354" y="-400" width="120" height="60" as="geometry" />
        </mxCell>
        <mxCell id="MYs3DCR5_QnMZLishloG-42" value="Lập hóa đơn" style="rounded=0;whiteSpace=wrap;html=1;" vertex="1" parent="1">
          <mxGeometry x="352" y="-320" width="120" height="60" as="geometry" />
        </mxCell>
        <mxCell id="MYs3DCR5_QnMZLishloG-43" value="Báo cáo thống kê" style="rounded=0;whiteSpace=wrap;html=1;" vertex="1" parent="1">
          <mxGeometry x="354" y="-240" width="120" height="60" as="geometry" />
        </mxCell>
        <mxCell id="MYs3DCR5_QnMZLishloG-44" value="Cập nhật thông tin hóa đơn" style="rounded=0;whiteSpace=wrap;html=1;" vertex="1" parent="1">
          <mxGeometry x="354" y="-150" width="120" height="60" as="geometry" />
        </mxCell>
        <mxCell id="MYs3DCR5_QnMZLishloG-45" value="" style="endArrow=none;html=1;rounded=0;entryX=0;entryY=0.5;entryDx=0;entryDy=0;" edge="1" parent="1" target="MYs3DCR5_QnMZLishloG-41">
          <mxGeometry width="50" height="50" relative="1" as="geometry">
            <mxPoint x="330" y="-370" as="sourcePoint" />
            <mxPoint x="390" y="-460" as="targetPoint" />
          </mxGeometry>
        </mxCell>
        <mxCell id="MYs3DCR5_QnMZLishloG-46" value="" style="endArrow=none;html=1;rounded=0;entryX=0;entryY=0.5;entryDx=0;entryDy=0;" edge="1" parent="1" target="MYs3DCR5_QnMZLishloG-42">
          <mxGeometry width="50" height="50" relative="1" as="geometry">
            <mxPoint x="330" y="-290" as="sourcePoint" />
            <mxPoint x="390" y="-460" as="targetPoint" />
          </mxGeometry>
        </mxCell>
        <mxCell id="MYs3DCR5_QnMZLishloG-47" value="" style="endArrow=none;html=1;rounded=0;" edge="1" parent="1">
          <mxGeometry width="50" height="50" relative="1" as="geometry">
            <mxPoint x="330" y="-200" as="sourcePoint" />
            <mxPoint x="350" y="-200" as="targetPoint" />
          </mxGeometry>
        </mxCell>
        <mxCell id="MYs3DCR5_QnMZLishloG-48" value="" style="endArrow=none;html=1;rounded=0;entryX=0;entryY=0.5;entryDx=0;entryDy=0;entryPerimeter=0;" edge="1" parent="1" target="MYs3DCR5_QnMZLishloG-44">
          <mxGeometry width="50" height="50" relative="1" as="geometry">
            <mxPoint x="330" y="-120" as="sourcePoint" />
            <mxPoint x="390" y="-460" as="targetPoint" />
          </mxGeometry>
        </mxCell>
        <mxCell id="MYs3DCR5_QnMZLishloG-49" value="Cập nhật xe" style="rounded=0;whiteSpace=wrap;html=1;" vertex="1" parent="1">
          <mxGeometry x="550" y="-400" width="120" height="60" as="geometry" />
        </mxCell>
        <mxCell id="MYs3DCR5_QnMZLishloG-50" value="Quản lý xe thuê," style="rounded=0;whiteSpace=wrap;html=1;" vertex="1" parent="1">
          <mxGeometry x="550" y="-320" width="120" height="60" as="geometry" />
        </mxCell>
        <mxCell id="MYs3DCR5_QnMZLishloG-51" value="Quản lý xe đang trống" style="rounded=0;whiteSpace=wrap;html=1;" vertex="1" parent="1">
          <mxGeometry x="550" y="-240" width="120" height="60" as="geometry" />
        </mxCell>
        <mxCell id="MYs3DCR5_QnMZLishloG-53" value="" style="endArrow=none;html=1;rounded=0;entryX=0;entryY=0.5;entryDx=0;entryDy=0;" edge="1" parent="1" target="MYs3DCR5_QnMZLishloG-49">
          <mxGeometry width="50" height="50" relative="1" as="geometry">
            <mxPoint x="530" y="-370" as="sourcePoint" />
            <mxPoint x="500" y="-450" as="targetPoint" />
          </mxGeometry>
        </mxCell>
        <mxCell id="MYs3DCR5_QnMZLishloG-54" value="" style="endArrow=none;html=1;rounded=0;entryX=0;entryY=0.5;entryDx=0;entryDy=0;" edge="1" parent="1" target="MYs3DCR5_QnMZLishloG-50">
          <mxGeometry width="50" height="50" relative="1" as="geometry">
            <mxPoint x="530" y="-290" as="sourcePoint" />
            <mxPoint x="500" y="-450" as="targetPoint" />
          </mxGeometry>
        </mxCell>
        <mxCell id="MYs3DCR5_QnMZLishloG-55" value="" style="endArrow=none;html=1;rounded=0;entryX=0;entryY=0.5;entryDx=0;entryDy=0;" edge="1" parent="1" target="MYs3DCR5_QnMZLishloG-51">
          <mxGeometry width="50" height="50" relative="1" as="geometry">
            <mxPoint x="530" y="-210" as="sourcePoint" />
            <mxPoint x="500" y="-450" as="targetPoint" />
          </mxGeometry>
        </mxCell>
        <mxCell id="MYs3DCR5_QnMZLishloG-57" value="Xem đơn đặt" style="rounded=0;whiteSpace=wrap;html=1;" vertex="1" parent="1">
          <mxGeometry x="740" y="-400" width="120" height="60" as="geometry" />
        </mxCell>
        <mxCell id="MYs3DCR5_QnMZLishloG-58" value="Xử lý đơn đặt" style="rounded=0;whiteSpace=wrap;html=1;" vertex="1" parent="1">
          <mxGeometry x="740" y="-320" width="120" height="60" as="geometry" />
        </mxCell>
        <mxCell id="MYs3DCR5_QnMZLishloG-59" value="Quản lý thanh toán" style="rounded=0;whiteSpace=wrap;html=1;" vertex="1" parent="1">
          <mxGeometry x="740" y="-240" width="120" height="60" as="geometry" />
        </mxCell>
        <mxCell id="MYs3DCR5_QnMZLishloG-60" value="" style="endArrow=none;html=1;rounded=0;" edge="1" parent="1">
          <mxGeometry width="50" height="50" relative="1" as="geometry">
            <mxPoint x="720" y="-360" as="sourcePoint" />
            <mxPoint x="740" y="-360" as="targetPoint" />
          </mxGeometry>
        </mxCell>
        <mxCell id="MYs3DCR5_QnMZLishloG-61" value="" style="endArrow=none;html=1;rounded=0;entryX=0;entryY=0.75;entryDx=0;entryDy=0;" edge="1" parent="1" target="MYs3DCR5_QnMZLishloG-59">
          <mxGeometry width="50" height="50" relative="1" as="geometry">
            <mxPoint x="720" y="-195" as="sourcePoint" />
            <mxPoint x="350" y="-260" as="targetPoint" />
          </mxGeometry>
        </mxCell>
        <mxCell id="MYs3DCR5_QnMZLishloG-63" value="" style="endArrow=none;html=1;rounded=0;entryX=0;entryY=0.5;entryDx=0;entryDy=0;" edge="1" parent="1" target="MYs3DCR5_QnMZLishloG-58">
          <mxGeometry width="50" height="50" relative="1" as="geometry">
            <mxPoint x="720" y="-290" as="sourcePoint" />
            <mxPoint x="350" y="-260" as="targetPoint" />
          </mxGeometry>
        </mxCell>
      </root>
    </mxGraphModel>
  </diagram>
</mxfile>
